<?xml version="1.0" encoding="UTF-8"?>
<svg width="133px" height="26px" viewBox="0 0 133 26" version="1.1" xmlns="http://www.w3.org/2000/svg" xmlns:xlink="http://www.w3.org/1999/xlink">
    <!-- Generator: Sketch 59.1 (86144) - https://sketch.com -->
    <title>SierraRehm</title>
    <desc>Created with Sketch.</desc>
    <g id="Page-1" stroke="none" stroke-width="1" fill="none" fill-rule="evenodd">
        <g id="Custom-Preset" transform="translate(-2.000000, -1.000000)" fill="#000000" fill-rule="nonzero">
            <path d="M23.1588238,8.26092034 C22.8665954,8.44263354 22.5051604,8.53348877 22.0745079,8.53348877 C21.7822795,8.53348877 21.5015906,8.48806116 21.2324328,8.39720456 C20.963275,8.30634796 20.7325718,8.19656455 20.5403163,8.06785104 C20.3480607,7.93913752 20.1981036,7.81421157 20.0904405,7.69306944 C19.9827774,7.57192731 19.9443269,7.48107208 19.9750878,7.42050101 C20.3134575,7.26907335 20.6864277,7.03436399 21.0940095,6.7163659 C21.5015913,6.3983678 21.8822516,6.04630377 22.2360018,5.66016323 C22.589752,5.27402268 22.8858211,4.88031666 23.124218,4.47903336 C23.3626149,4.07775005 23.4818116,3.7029722 23.4818116,3.35468858 C23.4818116,3.06697602 23.4010654,2.82469539 23.2395708,2.62783943 C23.1011468,2.45910574 22.8751515,2.34043732 22.5615796,2.27183172 L22.3974956,2.24170082 C22.2744521,2.21141528 22.1437203,2.19627274 22.0052963,2.19627274 L21.5900263,2.19627274 C21.0363303,2.19627274 20.4288119,2.25305727 19.7674528,2.36662801 C19.1060937,2.48019876 18.4447445,2.64676669 17.7833854,2.8663368 C17.1220263,3.08590692 16.4837474,3.35468699 15.8685296,3.67268508 C15.2533118,3.99068317 14.7188494,4.36167538 14.2651263,4.78567284 C13.8114032,5.2096703 13.4615033,5.68287465 13.2154162,6.20530009 C12.9693291,6.72772553 12.8847379,7.29935638 12.9616401,7.9202098 C13.0077815,8.34420726 13.119288,8.75684145 13.2961631,9.15812476 C13.4730383,9.55940807 13.6883612,9.94932845 13.9421386,10.3278976 C14.1959159,10.7064668 14.4766048,11.0736733 14.7842137,11.4295284 C15.0918226,11.7853834 15.3994269,12.1223049 15.7070358,12.440303 C16.0915469,12.8491576 16.4683621,13.2655775 16.8374928,13.6895749 C17.2066234,14.1135724 17.5296079,14.5489204 17.8064559,14.995632 C18.0833039,15.4423436 18.302472,15.9004054 18.4639666,16.3698312 C18.6254613,16.8392569 18.6831371,17.3238182 18.6369958,17.8235295 C18.5447131,18.6109533 18.2101935,19.4135079 17.6334268,20.2312173 C17.0566601,21.0489267 16.3184099,21.7871255 15.4186539,22.4458358 C14.5188979,23.1045461 13.4999587,23.6383206 12.3618058,24.0471753 C11.2236529,24.45603 10.0316864,24.6377405 8.78587036,24.5923122 C8.1091308,24.5468839 7.3824157,24.4181723 6.60570326,24.2061736 C5.82899081,23.9941748 5.10612076,23.6951097 4.43707143,23.3089692 C3.7680221,22.9228286 3.20279924,22.4458386 2.74138591,21.8779849 C2.27997257,21.3101312 2.03388915,20.6476451 2.00312826,19.8905067 C1.97236738,19.1030829 2.1684651,18.3383847 2.59142732,17.5963891 C3.01438955,16.8543936 3.77955518,16.1048379 4.88694718,15.3476996 L4.86387663,15.3476996 C4.9561593,15.2719857 5.16763724,15.2682001 5.49831679,15.3363425 C5.82899635,15.404485 6.17889621,15.5066971 6.54802688,15.642982 C6.91715755,15.7792669 7.24014203,15.9306923 7.51699003,16.0972627 C7.79383803,16.2638332 7.91687974,16.3925448 7.88611886,16.4834014 L6.36346247,17.3351777 L6.36346247,17.3351777 C6.02509269,17.5244623 5.72517852,17.7478147 5.46371097,18.0052418 C5.20224341,18.2626688 4.98692042,18.5541627 4.81773553,18.8797321 C4.64855064,19.2053016 4.56395946,19.595222 4.56395946,20.049505 C4.56395946,20.700644 4.70238139,21.2268472 4.97922939,21.6281305 C5.25607739,22.0294138 5.6098223,22.3436215 6.04047475,22.570763 C6.47112719,22.7979045 6.95175887,22.9493299 7.48238421,23.0250437 C8.01300954,23.1007575 8.53978186,23.1386139 9.06271697,23.1386139 C9.9701632,23.1386139 10.8006947,23.0136879 11.5543365,22.7638323 C12.3079783,22.5139767 12.9577923,22.1619126 13.5037981,21.7076296 C14.0498039,21.2533466 14.4727598,20.700644 14.7726784,20.049505 C15.0725971,19.398366 15.2225542,18.6715242 15.2225542,17.8689575 C15.2225542,17.4298173 15.1418081,17.0171831 14.9803134,16.6310426 C14.8188187,16.244902 14.6150309,15.8739098 14.3689438,15.5180548 C14.1228567,15.1621998 13.8383227,14.8139214 13.5153334,14.4732092 L13.0308518,13.9649826 L13.0308518,13.9649826 L12.5463702,13.4624346 C12.1772396,13.0838654 11.8119595,12.7053019 11.450519,12.3267328 C11.0890786,11.9481636 10.7776293,11.5620289 10.5161617,11.1683169 C10.2546942,10.774605 10.0547514,10.3695421 9.91632737,9.95311602 C9.77790337,9.53668995 9.73176273,9.10134194 9.77790407,8.64705895 C9.85480629,7.93534893 10.0970447,7.24257777 10.5046264,6.56872466 C10.9122082,5.89487156 11.4351355,5.26645618 12.0734239,4.68345968 C12.7117124,4.10046318 13.4422725,3.57425994 14.2651263,3.10483418 C15.0879801,2.63540842 15.9531171,2.23791677 16.8605633,1.91234729 C17.7680095,1.58677782 18.6946674,1.34449719 19.6405648,1.18549814 C20.5864621,1.0264991 21.5054299,0.969714575 22.3974956,1.01514287 C22.9204308,1.04542841 23.3626119,1.13249801 23.7240523,1.27635429 C24.0854928,1.42021057 24.3777169,1.60949231 24.6007333,1.84420519 C24.8237497,2.07891806 24.985242,2.34769814 25.0852149,2.65055346 C25.1851878,2.95340879 25.2351735,3.27140211 25.2351735,3.60454297 C25.2351735,3.9982549 25.1774977,4.41467473 25.0621443,4.85381495 C24.946791,5.29295517 24.7929889,5.72073191 24.6007333,6.13715798 C24.4084777,6.55358405 24.1931548,6.94729007 23.9547579,7.31828785 C23.716361,7.68928563 23.4741226,8.00349331 23.2280355,8.26092034 L23.1588238,8.26092034 Z M23.7355876,10.6458941 C23.9047725,10.5701803 24.1239406,10.5701803 24.3930983,10.6458941 C24.6622561,10.7216079 24.9198747,10.8465339 25.1659618,11.0206757 C25.4120489,11.1948175 25.6158368,11.4068131 25.7773314,11.6566687 C25.9388261,11.9065244 25.9965019,12.1525906 25.9503606,12.3948749 L25.1198207,13.8940013 L24.5618022,14.8565078 C24.4954744,14.9719708 24.4277045,15.0902732 24.3584925,15.2114153 C24.0816445,15.6959839 23.8124908,16.1843308 23.5510232,16.6764707 C23.2895557,17.1686106 23.0434722,17.6493862 22.8127656,18.1188119 C22.5820589,18.5882377 22.4013414,19.0084432 22.2706076,19.3794409 C22.1398738,19.7504387 22.0706629,20.0495039 22.0629727,20.2766454 C22.0552824,20.5037869 22.1437187,20.6173559 22.328284,20.6173559 L22.5128484,20.6173559 C22.9435008,20.4659282 23.3703018,20.2274332 23.793264,19.9018638 C24.2162262,19.5762943 24.6238019,19.2015164 25.0160032,18.777519 C25.4082046,18.3535215 25.7850198,17.9106023 26.1464602,17.4487479 C26.5079007,16.9868935 26.8424203,16.5439742 27.1500292,16.1199768 L27.4960875,15.642982 C27.5576093,15.5672682 27.6575807,15.5256262 27.7960047,15.5180548 C27.9344287,15.5104834 28.0613154,15.525626 28.1766688,15.5634829 C28.2920221,15.6013398 28.3804583,15.66191 28.4419801,15.7451952 C28.5035019,15.8284804 28.4881217,15.9231213 28.395839,16.0291206 L28.4189095,16.0291206 C27.8036918,16.9679721 27.1423426,17.861382 26.4348421,18.7093769 C25.7273417,19.5573718 24.8968101,20.3523551 23.9432226,21.0943507 L23.7355877,21.2419918 C23.6586861,21.2949911 23.5740942,21.3517761 23.4818116,21.4123472 C23.2972462,21.5334893 23.0896133,21.6432727 22.8589067,21.7417007 C22.6282,21.8401287 22.3782715,21.9234126 22.1091138,21.9915551 C21.839956,22.0596975 21.5669572,22.0937682 21.2901092,22.0937682 C20.7364132,22.0786255 20.3288375,21.9082719 20.06737,21.5827024 C19.8059024,21.2571329 19.6751706,20.8596413 19.6751706,20.3902155 C19.6751706,20.0116464 19.7520717,19.5876553 19.9058761,19.1182295 L19.8828056,19.1182295 C19.9443273,18.8880595 20.0304567,18.6263957 20.1411955,18.333233 L20.2288638,18.1074549 C20.3826683,17.7213144 20.5556957,17.3086802 20.7479512,16.86954 C20.9402068,16.4303997 21.1478397,15.9761236 21.3708561,15.5066978 C21.5938726,15.0372721 21.8207307,14.5678533 22.0514374,14.0984276 L22.9281183,12.2358766 L22.9281183,12.2358766 C23.2049663,11.6453087 23.4279794,11.1153199 23.5971643,10.6458941 L23.7355876,10.6458941 Z M25.9503606,12.3948749 L26.1263658,12.0842779 L26.1263658,12.0842779 L25.9042194,12.5538731 L25.9042194,12.5538731 L25.9503606,12.3948749 Z M26.0195722,4.37682019 C26.1887571,4.34653466 26.4079251,4.41467609 26.6770829,4.58124652 C26.9462407,4.74781695 27.2077043,4.94845559 27.4614817,5.18316847 C27.715259,5.41788135 27.930582,5.65259071 28.1074571,5.88730358 C28.2843322,6.12201646 28.3727684,6.28479876 28.3727684,6.37565536 C28.3112467,6.61793962 28.1997401,6.89807659 28.0382454,7.21607469 C27.8767508,7.53407278 27.7114135,7.8520661 27.5422286,8.1700642 C27.3884241,8.47291952 27.2423121,8.77198467 27.1038881,9.06726862 C26.9654641,9.36255256 26.8424224,9.69190279 26.7347593,10.0553292 C26.5655744,10.0250436 26.3771668,9.94554532 26.1695308,9.8168318 C25.9618948,9.68811829 25.7696421,9.54047853 25.592767,9.3739081 C25.4158919,9.20733767 25.2659348,9.04076974 25.1428913,8.87419931 C25.0198477,8.70762888 24.9583268,8.57134603 24.9583268,8.46534667 C24.9737073,8.20791964 25.0160029,7.92399703 25.0852149,7.61357032 C25.1544269,7.30314361 25.235173,6.97379338 25.3274557,6.62550975 C25.4351188,6.24694059 25.5312451,5.86459148 25.6158376,5.47845094 C25.70043,5.0923104 25.7581058,4.72510382 25.7888667,4.37682019 L26.0195722,4.37682019 Z M35.8245565,13.6895749 C35.1631974,14.8707107 34.2788351,15.8587614 33.1714431,16.6537566 C32.0640511,17.4487519 30.8182538,18.0430965 29.4340138,18.4368084 L29.4340138,18.6185207 C29.4340138,19.1030893 29.5301401,19.5762936 29.7223957,20.038148 C29.9146513,20.5000024 30.2184105,20.7990675 30.6336825,20.9353524 C30.9259109,20.9959235 31.2796558,20.969424 31.6949278,20.8558533 C32.1101998,20.7422825 32.5485359,20.5378582 33.0099493,20.2425743 C33.4713626,19.9472904 33.9481492,19.5611556 34.4403234,19.0841585 C34.9324977,18.6071613 35.4092843,18.0355305 35.8706976,17.3692488 C36.1167847,17.0209651 36.3397978,16.680258 36.5397436,16.3471171 C36.7396894,16.0139763 36.924252,15.695983 37.0934368,15.3931276 C37.1857195,15.2719855 37.3087612,15.1962728 37.4625657,15.1659873 C37.6163701,15.1357017 37.7586371,15.1394874 37.8893709,15.1773443 C38.0201046,15.2152012 38.1123859,15.2871283 38.1662175,15.3931276 C38.220049,15.499127 38.2008238,15.6278386 38.1085411,15.7792662 L37.6702006,16.4834014 C37.30107,17.0739692 36.8473537,17.7364553 36.3090381,18.4708795 C35.7707225,19.2053037 35.1170635,19.9283599 34.3480412,20.6400699 C33.9173888,21.0034963 33.4867428,21.2836333 33.0560904,21.4804893 C32.6254379,21.6773452 32.2140172,21.824985 31.8218159,21.923413 C31.4296145,22.0218409 31.0720246,22.0786255 30.7490352,22.0937682 L30.2424059,22.112848 C30.1464326,22.1152709 30.0615332,22.1164823 29.987707,22.1164823 C28.8495541,22.1164823 27.9651919,21.8439166 27.3345936,21.298777 C26.7039954,20.7536374 26.3656307,20.011653 26.3194894,19.0728015 C26.2887285,18.2096638 26.4502207,17.3578959 26.803971,16.5174724 C27.1577212,15.6770489 27.7267891,14.7419971 28.5111918,13.712289 C28.7572789,13.3942909 29.0917985,13.0460125 29.5147607,12.6674433 C29.937723,12.2888742 30.4145096,11.9443814 30.9451349,11.6339547 C31.4757603,11.323528 32.0409831,11.0698904 32.6408204,10.8730345 C33.2406578,10.6761785 33.8404861,10.5853233 34.4403234,10.600466 C35.0247803,10.6156088 35.4938769,10.7670342 35.8476271,11.0547468 C36.2013773,11.3424593 36.3782498,11.7210228 36.3782498,12.1904486 C36.3782498,12.6295888 36.1936872,13.1292926 35.8245565,13.6895749 Z M34.4403234,11.7588819 C33.8404861,11.880024 33.2675731,12.1639466 32.7215674,12.6106582 C32.1755616,13.0573698 31.6910849,13.5760018 31.2681226,14.1665697 C30.8451604,14.7571376 30.4837254,15.3704104 30.1838067,16.0064066 C29.8838881,16.6424028 29.6724101,17.2026767 29.5493666,17.6872453 C30.6567586,17.3086761 31.6603175,16.7446165 32.5600735,15.9950496 C33.4598295,15.2454826 34.2019248,14.3255734 34.7863817,13.2352942 C34.9094253,12.9627244 34.9709461,12.6901587 34.9709461,12.4175889 C34.9709461,12.1904474 34.9286505,12.0163082 34.8440581,11.8951661 C34.7594656,11.774024 34.6248888,11.7285963 34.4403234,11.7588819 Z M45.6295408,18.16424 C45.3065515,18.618523 44.9335813,19.0803705 44.5106191,19.5497962 C44.0876569,20.019222 43.6300955,20.4432131 43.1379213,20.8217822 C42.6457471,21.2003514 42.1151297,21.5069878 41.5460533,21.7417007 C40.9769768,21.9764136 40.3848386,22.0786257 39.7696208,22.0483402 C39.0928812,22.0180546 38.5930243,21.8060591 38.270035,21.4123472 C37.9470456,21.0186352 37.7932435,20.5643591 37.8086239,20.049505 C37.8240044,19.6709358 37.9009055,19.2999436 38.0393295,18.9365172 C38.1777535,18.5730908 38.3430908,18.2134555 38.5353463,17.8576005 C38.7276019,17.5017455 38.9467699,17.1534671 39.192857,16.8127549 L39.9311147,15.8019803 L39.9311147,15.8019803 C39.9926364,15.7262664 40.0618474,15.6278399 40.1387496,15.5066978 C40.2156518,15.3855557 40.2925529,15.2871292 40.3694551,15.2114153 L40.9000778,14.5072802 C41.1769258,14.1287111 41.4306993,13.7993608 41.661406,13.5192197 L41.8403209,13.3078395 C41.9737221,13.1556399 42.0678869,13.0633167 42.122817,13.0308679 C41.9382517,13.0611534 41.7729144,13.0914385 41.6268002,13.121724 C41.480686,13.1520096 41.338419,13.1898659 41.199995,13.2352942 C41.0308101,13.2807225 40.8577827,13.3185789 40.6809076,13.3488644 C40.5040325,13.3791499 40.2694842,13.3867212 39.9772558,13.3715784 L39.7004091,13.3715784 C39.3620394,13.8258614 39.0313648,14.2990658 38.7083754,14.7912057 C38.3853861,15.2833456 38.0854719,15.7565499 37.8086239,16.2108329 C37.7471022,16.2865468 37.6509758,16.3244031 37.520242,16.3244031 C37.3895083,16.3244031 37.2626215,16.3054749 37.139578,16.267618 C37.0165344,16.2297611 36.9204081,16.1729766 36.8511961,16.0972627 C36.7958265,16.0366917 36.7872134,15.9664301 36.8253569,15.8864767 L37.6471301,14.5527083 C37.7855541,14.3255668 37.9355112,14.0870718 38.0970058,13.8372162 L38.5930227,13.076296 L38.5930227,13.076296 C38.362316,12.9097255 38.2469644,12.6825874 38.2469644,12.3948749 C38.2469644,12.2283045 38.2854149,12.0352371 38.3623172,11.815667 C38.4392194,11.5960969 38.5353457,11.3727444 38.6506991,11.1456029 C38.7660524,10.9184614 38.8929392,10.6875377 39.0313632,10.4528248 C39.1236458,10.2963496 39.2159276,10.1449234 39.3082096,9.9985443 L39.4466331,9.78276075 C39.5696766,9.60104755 39.6811832,9.41176581 39.7811561,9.21490985 C39.881129,9.01805389 39.9695652,8.81362961 40.0464674,8.60163088 C40.4617394,8.76820131 40.8577799,8.97641122 41.2346008,9.22626687 C41.6114217,9.47612251 41.7998293,9.78275893 41.7998293,10.1461853 C41.7998293,10.3127558 41.7459986,10.5247513 41.6383355,10.7821783 L40.6001607,12.2585907 C40.5386389,12.3494473 40.5809345,12.3797323 40.7270487,12.3494468 C40.8439401,12.3252184 41.0026642,12.279185 41.2032244,12.2113456 L41.3614888,12.1563775 C41.6383368,12.0579495 41.9497862,11.9368092 42.2958462,11.7929529 C42.6419062,11.6490967 42.9725808,11.5014569 43.2878799,11.3500292 C43.603179,11.1986016 43.8877129,11.0509618 44.1414903,10.9071055 C44.3952676,10.7632492 44.5606049,10.6458946 44.6375071,10.555038 C44.7297898,10.555038 44.8451414,10.5853231 44.9835654,10.6458941 C45.1219894,10.7064652 45.2604113,10.7746066 45.3988353,10.8503204 C45.5372593,10.9260343 45.660301,11.001747 45.7679642,11.0774608 L45.9525286,11.213745 L45.9525286,11.213745 C46.0755721,11.3803154 46.0986424,11.5998823 46.0217402,11.8724521 C45.944838,12.1450219 45.798726,12.4516583 45.5833997,12.7923705 C45.3680735,13.1330828 45.1027648,13.504075 44.7874657,13.9053583 L43.8069673,15.1432732 L43.8069673,15.1432732 L43.5070501,15.5265726 L43.5070501,15.5265726 L43.207133,15.9041934 C43.0071872,16.1540491 42.8072444,16.4076866 42.6072986,16.6651136 C42.4534942,16.8468268 42.2843118,17.0663937 42.0997465,17.3238207 C41.9151812,17.5812477 41.7383087,17.8500278 41.5691238,18.130169 C41.3999389,18.4103101 41.2576719,18.6866615 41.1423186,18.9592313 C41.0269653,19.2318011 40.9692895,19.481653 40.9692895,19.7087945 C40.9692895,20.0873636 41.1154015,20.2842166 41.4076299,20.2993594 C41.5768148,20.2993594 41.7921378,20.2350036 42.0536054,20.1062901 C42.3150729,19.9775766 42.5919168,19.7958661 42.8841452,19.5611532 C43.1763737,19.3264403 43.4762878,19.0538746 43.7838967,18.7434479 C44.0915056,18.4330212 44.3760396,18.0960997 44.6375071,17.7326733 C44.9143551,17.3238186 45.1873539,16.9036132 45.4565117,16.4720443 L45.7555064,15.9886891 C45.8930066,15.7642749 46.0125115,15.5657552 46.1140224,15.3931276 C46.1755442,15.3174138 46.2716705,15.2757718 46.4024043,15.2682004 C46.5331381,15.260629 46.6600249,15.2795572 46.7830684,15.3249855 C46.906112,15.3704138 47.0060834,15.430984 47.0829856,15.5066978 C47.1598878,15.5824116 47.1675779,15.6732669 47.1060561,15.7792662 L46.9474461,16.0319599 L46.9474461,16.0319599 L46.7946037,16.290332 C46.6946308,16.4644739 46.5908144,16.6348274 46.4831512,16.8013979 C46.3447272,17.0436821 46.2063053,17.2783915 46.0678813,17.505533 C45.9294573,17.7326745 45.7833453,17.9522413 45.6295408,18.16424 Z M54.6270559,18.16424 C54.3040665,18.618523 53.9310963,19.0803705 53.5081341,19.5497962 C53.0851719,20.019222 52.6276105,20.4432131 52.1354363,20.8217822 C51.6432621,21.2003514 51.1126447,21.5069878 50.5435683,21.7417007 C49.9744918,21.9764136 49.3823536,22.0786257 48.7671358,22.0483402 C48.0903963,22.0180546 47.5905393,21.8060591 47.26755,21.4123472 C46.9445607,21.0186352 46.7907585,20.5643591 46.806139,20.049505 C46.8215194,19.6709358 46.8984205,19.2999436 47.0368445,18.9365172 C47.1752685,18.5730908 47.3406058,18.2134555 47.5328613,17.8576005 C47.7251169,17.5017455 47.9442849,17.1534671 48.190372,16.8127549 L48.9286297,15.8019803 L48.9286297,15.8019803 C48.9901515,15.7262664 49.0593624,15.6278399 49.1362646,15.5066978 C49.2131669,15.3855557 49.2900679,15.2871292 49.3669702,15.2114153 L49.8975928,14.5072802 C50.1744408,14.1287111 50.4282144,13.7993608 50.658921,13.5192197 L50.837836,13.3078395 C50.9712371,13.1556399 51.0654019,13.0633167 51.1203321,13.0308679 C50.9357667,13.0611534 50.7704294,13.0914385 50.6243152,13.121724 C50.478201,13.1520096 50.335934,13.1898659 50.19751,13.2352942 C50.0283251,13.2807225 49.8552977,13.3185789 49.6784226,13.3488644 C49.5015475,13.3791499 49.2669992,13.3867212 48.9747708,13.3715784 L48.6979242,13.3715784 C48.3595544,13.8258614 48.0288798,14.2990658 47.7058905,14.7912057 C47.3829011,15.2833456 47.082987,15.7565499 46.806139,16.2108329 C46.7446172,16.2865468 46.6484908,16.3244031 46.5177571,16.3244031 C46.3870233,16.3244031 46.2601365,16.3054749 46.137093,16.267618 C46.0140494,16.2297611 45.9179231,16.1729766 45.8487111,16.0972627 C45.7933415,16.0366917 45.7847284,15.9664301 45.8228719,15.8864767 L46.6446451,14.5527083 C46.7830691,14.3255668 46.9330262,14.0870718 47.0945209,13.8372162 L47.5905377,13.076296 L47.5905377,13.076296 C47.359831,12.9097255 47.2444794,12.6825874 47.2444794,12.3948749 C47.2444794,12.2283045 47.28293,12.0352371 47.3598322,11.815667 C47.4367344,11.5960969 47.5328608,11.3727444 47.6482141,11.1456029 C47.7635674,10.9184614 47.8904542,10.6875377 48.0288782,10.4528248 L48.3057246,9.9985443 L48.3057246,9.9985443 L48.4441481,9.78276075 C48.5671917,9.60104755 48.6786982,9.41176581 48.7786711,9.21490985 C48.878644,9.01805389 48.9670802,8.81362961 49.0439824,8.60163088 C49.4592544,8.76820131 49.8552949,8.97641122 50.2321158,9.22626687 C50.6089367,9.47612251 50.7973443,9.78275893 50.7973443,10.1461853 C50.7973443,10.3127558 50.7435136,10.5247513 50.6358505,10.7821783 L49.5976757,12.2585907 C49.5361539,12.3494473 49.5784495,12.3797323 49.7245637,12.3494468 C49.8414551,12.3252184 50.0001792,12.279185 50.2007394,12.2113456 L50.3590039,12.1563775 C50.6358519,12.0579495 50.9473012,11.9368092 51.2933612,11.7929529 C51.6394212,11.6490967 51.9700958,11.5014569 52.2853949,11.3500292 C52.600694,11.1986016 52.885228,11.0509618 53.1390053,10.9071055 C53.3927826,10.7632492 53.5581199,10.6458946 53.6350222,10.555038 C53.7273048,10.555038 53.8426564,10.5853231 53.9810804,10.6458941 C54.1195044,10.7064652 54.2579264,10.7746066 54.3963504,10.8503204 C54.5347744,10.9260343 54.6578161,11.001747 54.7654792,11.0774608 L54.9500436,11.213745 L54.9500436,11.213745 C55.0730871,11.3803154 55.0961575,11.5998823 55.0192552,11.8724521 C54.942353,12.1450219 54.796241,12.4516583 54.5809148,12.7923705 C54.3655885,13.1330828 54.1002799,13.504075 53.7849807,13.9053583 L52.8044823,15.1432732 L52.8044823,15.1432732 L52.5045651,15.5265726 L52.5045651,15.5265726 L52.204648,15.9041934 C52.0047022,16.1540491 51.8047594,16.4076866 51.6048136,16.6651136 C51.4510092,16.8468268 51.2818268,17.0663937 51.0972615,17.3238207 C50.9126962,17.5812477 50.7358237,17.8500278 50.5666388,18.130169 C50.3974539,18.4103101 50.255187,18.6866615 50.1398336,18.9592313 C50.0244803,19.2318011 49.9668045,19.481653 49.9668045,19.7087945 C49.9668045,20.0873636 50.1129165,20.2842166 50.405145,20.2993594 C50.5743299,20.2993594 50.7896529,20.2350036 51.0511204,20.1062901 C51.312588,19.9775766 51.5894318,19.7958661 51.8816603,19.5611532 C52.1738887,19.3264403 52.4738029,19.0538746 52.7814118,18.7434479 C53.0890206,18.4330212 53.3735546,18.0960997 53.6350222,17.7326733 C53.9118702,17.3238186 54.184869,16.9036132 54.4540267,16.4720443 L54.7530214,15.9886891 C54.8905216,15.7642749 55.0100265,15.5657552 55.1115374,15.3931276 C55.1730592,15.3174138 55.2691856,15.2757718 55.3999193,15.2682004 C55.5306531,15.260629 55.6575399,15.2795572 55.7805834,15.3249855 C55.903627,15.3704138 56.0035984,15.430984 56.0805006,15.5066978 C56.1574028,15.5824116 56.1650929,15.6732669 56.1035711,15.7792662 L55.9449611,16.0319599 L55.9449611,16.0319599 L55.7921187,16.290332 C55.6921458,16.4644739 55.5883294,16.6348274 55.4806663,16.8013979 C55.3422423,17.0436821 55.2038203,17.2783915 55.0653963,17.505533 C54.9269723,17.7326745 54.7808603,17.9522413 54.6270559,18.16424 Z M64.5473929,13.712289 C64.5473929,13.8182883 64.482027,13.9015723 64.3512933,13.9621434 C64.2205595,14.0227144 64.0782925,14.0567851 63.9244881,14.0643565 C63.7706836,14.0719279 63.6322617,14.0454285 63.5092181,13.9848574 C63.4107833,13.9364005 63.351723,13.8685618 63.3320362,13.7813398 L63.3188861,13.6242721 L63.3188861,13.6242721 L63.3015832,13.5419337 C63.2862027,13.488934 63.2785126,13.4321495 63.2785126,13.3715784 C63.2631322,13.205008 63.2400618,13.0195119 63.209301,12.8150845 C63.1785401,12.6106572 63.1247093,12.4213755 63.0478071,12.2472337 C62.9709049,12.0730918 62.8593983,11.9254521 62.7132841,11.8043099 C62.5671699,11.6831678 62.3787623,11.6150264 62.1480556,11.5998836 C61.748164,11.5847409 61.3598136,11.6718105 60.9829928,11.861095 C60.6061719,12.0503796 60.2408918,12.3040172 59.8871416,12.6220152 C59.5333913,12.9400133 59.2027168,13.3034343 58.8951079,13.712289 C58.587499,14.1211437 58.3068101,14.5489204 58.0530327,14.995632 C57.7992554,15.4423436 57.5800874,15.8890485 57.395522,16.3357601 C57.2109567,16.7824717 57.0648447,17.1951059 56.9571815,17.5736751 C56.9110402,17.7553883 56.8648996,17.9673838 56.8187582,18.2096681 C56.7726169,18.4519523 56.7495466,18.694233 56.7495466,18.9365172 C56.7495466,19.148516 56.7687719,19.3491546 56.807223,19.5384392 C56.8456741,19.7277238 56.9187301,19.8905061 57.0263932,20.026791 C57.1340563,20.1630759 57.2724782,20.2577167 57.4416631,20.3107164 C57.610848,20.3637161 57.8338611,20.3599305 58.1107091,20.2993594 C58.3260353,20.2539311 58.5951891,20.0911488 58.9181784,19.8110076 C59.2411677,19.5308664 59.5718423,19.2015162 59.9102121,18.8229471 C60.2485819,18.4443779 60.5754114,18.0506719 60.8907106,17.6418172 C61.2060097,17.2329625 61.4636282,16.8695416 61.663574,16.5515435 C61.8327589,16.1124032 61.9788709,15.6808409 62.1019145,15.2568434 C62.2249581,14.832846 62.3018591,14.4467112 62.33262,14.0984276 L62.4941139,14.0984276 C62.6786792,14.007571 62.9209176,14.0113566 63.2208362,14.1097846 C63.5207549,14.2082126 63.8052889,14.3558523 64.0744466,14.5527083 C64.3436044,14.7495643 64.5627725,14.980488 64.7319573,15.2454864 C64.9011422,15.5104848 64.9472829,15.7716936 64.8703807,16.0291206 C64.8498734,16.0896917 64.8242396,16.1553097 64.7934789,16.2259755 L64.7434926,16.3357601 C64.6896611,16.4493309 64.6396754,16.5666855 64.593534,16.6878277 C64.4704905,16.9603975 64.3474488,17.2481057 64.2244052,17.550961 C64.1013617,17.8538164 63.9898551,18.1566672 63.8898822,18.4595225 C63.7899093,18.7623778 63.7053182,19.0538717 63.6361062,19.3340129 C63.5668942,19.614154 63.5322887,19.8602203 63.5322887,20.072219 L63.5379386,20.3114124 C63.5473551,20.4829266 63.5685422,20.5849071 63.6015003,20.6173559 L63.8091353,20.6173559 C64.2244073,20.481071 64.6242929,20.2463616 65.008804,19.9132208 C65.3933151,19.5800799 65.7624402,19.1977308 66.1161904,18.766162 C66.4699407,18.3345931 66.8044603,17.8765313 67.1197594,17.3919628 L67.7247203,16.4531164 C67.8212746,16.3016898 67.915693,16.1527867 68.0079756,16.0064066 C68.0592438,15.9357404 68.1053847,15.8667573 68.1463989,15.7994566 L68.3771045,15.3931276 L68.3771045,15.3931276 C68.4232458,15.3174138 68.5155271,15.2757718 68.6539511,15.2682004 C68.7923751,15.260629 68.9269519,15.2795572 69.0576857,15.3249855 C69.1884195,15.3704138 69.2922359,15.430984 69.3691382,15.5066978 C69.4460404,15.5824116 69.4537305,15.6732669 69.3922087,15.7792662 L69.2566692,15.9865318 L69.2566692,15.9865318 L68.861586,16.6423996 L68.861586,16.6423996 C68.3847923,17.4146807 67.861865,18.1907358 67.2927885,18.9705883 C66.7237121,19.7504408 66.0623629,20.4583545 65.3087211,21.0943507 L65.1241568,21.2419918 C65.0549454,21.2949911 64.9780437,21.3517761 64.8934512,21.4123472 C64.7242663,21.5334893 64.5320136,21.6470583 64.3166874,21.7530577 C64.1013612,21.8590571 63.8591228,21.9461267 63.5899651,22.0142691 C63.3208073,22.0824116 63.0247382,22.108911 62.7017488,22.0937682 C61.9481071,22.0331972 61.4021095,21.8060591 61.0637397,21.4123472 C60.7253699,21.0186352 60.5561876,20.5492165 60.5561876,20.0040769 L60.5561876,19.6860804 C60.2639591,19.9889358 59.9601999,20.276644 59.6449008,20.5492138 C59.3296017,20.8217836 59.0066172,21.0640642 58.6759376,21.2760629 C58.3452581,21.4880617 58.0107384,21.6584152 57.6723686,21.7871287 C57.3339989,21.9158423 56.9956342,21.9801981 56.6572644,21.9801981 C56.1035684,21.9347698 55.6383169,21.8060582 55.261496,21.5940594 C54.8846751,21.3820607 54.588606,21.1359945 54.3732798,20.8558533 C54.1579536,20.5757121 54.0041514,20.2728613 53.9118688,19.9472918 C53.8195861,19.6217224 53.7734455,19.3075147 53.7734455,19.0046593 C53.7734455,18.8835172 53.7772905,18.7623769 53.7849807,18.6412348 C53.7901076,18.5604734 53.7969432,18.4864428 53.8054879,18.419142 L53.8195866,18.3232383 C53.8811083,17.8386697 54.0310654,17.3086809 54.2694623,16.7332558 C54.5078592,16.1578306 54.8077734,15.5824141 55.1692138,15.006989 C55.5306543,14.4315639 55.9536101,13.8750756 56.4380941,13.3375074 C56.9225781,12.7999392 57.4493505,12.3229492 58.0184269,11.9065231 C58.5875034,11.490097 59.1834866,11.1569612 59.8063946,10.9071055 C60.4293026,10.6572499 61.0714266,10.5323239 61.7327857,10.5323239 C62.1480577,10.5323239 62.5402531,10.5777516 62.9093838,10.6686082 C63.2477536,10.7594648 63.5284425,10.9108901 63.7514589,11.1228889 C63.9744754,11.3348876 64.1475028,11.5809539 64.2705463,11.861095 C64.3935899,12.1412362 64.474336,12.4403014 64.5127871,12.7582995 C64.5512382,13.0762976 64.5627734,13.3942909 64.5473929,13.712289 Z M86.2106406,3.21840436 C86.2875429,3.112405 86.4797955,3.09726246 86.7874044,3.17297629 C87.0950133,3.24869012 87.4064626,3.38875861 87.7217618,3.59318595 C88.0370609,3.7976133 88.3023696,4.04367956 88.5176958,4.33139212 C88.733022,4.61910468 88.7868527,4.90681293 88.6791896,5.19452549 C88.0024501,5.9970921 87.3372558,6.88293065 86.6835869,7.85206769 C86.0299181,8.82120474 85.3916392,9.8281836 84.7687312,10.8730345 C84.1458232,11.9178854 83.553685,12.98922 82.9922987,14.0870706 C82.4309125,15.1849211 81.9118303,16.263827 81.4350365,17.3238207 L81.7695595,17.3238207 C81.854152,17.3238207 81.9425882,17.3162494 82.0348709,17.3011066 C82.142534,17.2556784 82.2732658,17.2481071 82.4270702,17.2783926 C83.2114729,17.187536 84.0266242,16.990683 84.8725487,16.6878277 C85.7184731,16.3849724 86.5490047,15.9912663 87.3641682,15.5066978 C88.1793318,15.0221293 88.9521875,14.465641 89.6827586,13.8372162 C90.4133297,13.2087914 91.0554537,12.5198058 91.6091497,11.7702389 C92.1628457,11.020672 92.6127169,10.2294743 92.9587769,9.39662214 C93.3048369,8.56376999 93.5009346,7.70821652 93.547076,6.82993608 C93.547076,6.40593862 93.4701749,5.9365199 93.3163705,5.42166585 C93.162566,4.90681179 92.8703419,4.42982181 92.4396895,3.99068158 C92.0090371,3.55154136 91.4168988,3.18433478 90.6632571,2.88905084 C89.9096153,2.5937669 88.9329717,2.43855587 87.733297,2.4234131 C86.7028073,2.48398417 85.6607978,2.79440622 84.6072373,3.35468858 C83.5536769,3.91497093 82.5347377,4.62667027 81.5503893,5.48980796 C80.5660408,6.35294564 79.643228,7.31071124 78.7819231,8.3631335 C77.9206182,9.41555576 77.1785229,10.4641766 76.5556149,11.5090275 C75.9327069,12.5538784 75.4482302,13.541929 75.1021702,14.4732092 C74.7561102,15.4044893 74.6061531,16.1729732 74.6522944,16.7786838 C74.6676749,17.0361109 74.5523233,17.1496799 74.3062362,17.1193944 C74.060149,17.0891088 73.7833052,16.9641829 73.4756963,16.7446128 C73.1680874,16.5250427 72.8873985,16.2297631 72.6336212,15.8587654 C72.3798438,15.4877676 72.2529571,15.0902759 72.2529571,14.6662785 C72.2529571,14.5905646 72.2606472,14.4959238 72.2760276,14.382353 C72.2914081,14.2687823 72.3221685,14.1514276 72.3683098,14.0302855 L72.3452393,14.0302855 C72.7758917,12.5008661 73.4680014,11.0055403 74.4215889,9.54426337 C75.3751765,8.08298642 76.5210024,6.77315678 77.8591011,5.61473515 C79.1971997,4.45631353 80.7006156,3.50990483 82.3693938,2.77548066 C84.0381721,2.04105649 85.7953615,1.6284223 87.6410148,1.5375657 L87.6179443,1.5375657 C87.9409336,1.4921374 88.256228,1.46185232 88.5638369,1.44670956 C88.8714458,1.43156679 89.17905,1.42399552 89.4866589,1.42399552 C90.7478554,1.42399552 91.8206253,1.58299218 92.7050008,1.90099028 C93.5893764,2.21898837 94.3084014,2.63162256 94.8620974,3.13890524 C95.4157934,3.64618791 95.819524,4.22539003 96.0733013,4.87652899 C96.3270787,5.52766794 96.4539654,6.19393966 96.4539654,6.87536415 C96.4539654,7.93535779 96.2540227,8.93476538 95.8541311,9.87361689 C95.4542395,10.8124684 94.9159321,11.6831644 94.2391925,12.485731 C93.562453,13.2882976 92.7780621,14.0151395 91.8859963,14.6662785 C90.9939305,15.3174174 90.0595825,15.881477 89.0829243,16.3584742 C88.1062661,16.8354713 87.1180873,17.2253917 86.1183584,17.528247 C85.1186295,17.8311023 84.1650563,18.0279553 83.2576101,18.1188119 L83.5750609,18.5967154 C83.7448597,18.8474778 83.9312692,19.1159567 84.134291,19.402155 C84.4726608,19.8791521 84.8533211,20.367499 85.2762833,20.8672103 C85.6992455,21.3669216 86.1606519,21.8590541 86.6605164,22.3436226 C87.1603808,22.8281912 87.6948433,23.2559679 88.2639197,23.6269657 C88.8329962,23.9979634 89.4328245,24.2970286 90.0634227,24.5241701 C90.6940209,24.7513116 91.3553701,24.8648806 92.0474901,24.8648806 C92.4473817,24.8648806 92.8780277,24.819453 93.339441,24.7285964 C93.4471041,24.7285964 93.4817096,24.8383798 93.4432585,25.0579499 C93.4048074,25.27752 93.3163711,25.5273719 93.1779471,25.8075131 C93.0395231,26.0876543 92.8626507,26.3488631 92.6473245,26.5911474 C92.4319982,26.8334316 92.2089851,26.9697145 91.9782785,27 C91.1015931,26.9545717 90.297977,26.795575 89.5674059,26.5230052 C88.8368348,26.2504355 88.1639504,25.8983714 87.5487326,25.4668026 C86.9335148,25.0352337 86.368292,24.5393156 85.8530471,23.9790332 C85.3378022,23.4187509 84.8648606,22.8319775 84.4342082,22.2186954 C84.0035557,21.6054134 83.5998251,20.9807837 83.2230042,20.3447875 C82.8461834,19.7087913 82.4962835,19.0879472 82.1732942,18.4822365 L82.0118003,18.2096681 L81.873377,18.2046205 L81.873377,18.2046205 L81.8157006,18.1983111 C81.7618691,18.1907397 81.7041933,18.1869541 81.6426715,18.1869541 L81.3427543,18.1869541 C81.2504716,18.1869541 81.1581904,18.1793828 81.0659077,18.16424 C80.4814508,19.5422318 79.993129,20.8369189 79.6009277,22.0483402 C79.2087264,23.2597615 78.9511078,24.3197392 78.8280642,25.2283052 C78.7973033,25.3191618 78.6896418,25.3002336 78.5050765,25.1715201 C78.3205112,25.0428066 78.1205684,24.872453 77.9052422,24.6604543 C77.6899159,24.4484556 77.4899732,24.2213175 77.3054078,23.9790332 C77.1208425,23.736749 77.0285612,23.5550385 77.0285612,23.4338964 C77.0747025,22.6616153 77.2400398,21.7644198 77.5245781,20.7422831 C77.8091163,19.7201464 78.1743964,18.6336692 78.6204293,17.4828189 C77.9590701,17.1496781 77.4322978,16.7332582 77.0400965,16.233547 C76.6478952,15.7338357 76.4056568,15.1962755 76.3133741,14.6208504 C76.3287546,14.4997083 76.428726,14.3634254 76.6132913,14.2119978 C76.7978566,14.0605701 77.0593203,13.9091447 77.39769,13.757717 C77.5976358,14.4845698 77.8321841,15.0751289 78.1013418,15.5294118 C78.3704996,15.9836948 78.6665687,16.3395445 78.9895581,16.5969715 C79.4817323,15.400693 80.0315749,14.177933 80.6391025,12.9286547 C81.2466301,11.6793765 81.8733738,10.4641877 82.5193524,9.28305196 C83.1653311,8.10191618 83.80361,6.98893955 84.4342082,5.94408867 C85.0648064,4.8992378 85.6569446,3.99068544 86.2106406,3.21840436 Z M103.467413,13.6895749 C102.806054,14.8707107 101.921692,15.8587614 100.8143,16.6537566 C99.7069076,17.4487519 98.4611103,18.0430965 97.0768703,18.4368084 L97.0768703,18.6185207 C97.0768703,19.1030893 97.1729967,19.5762936 97.3652522,20.038148 C97.5575078,20.5000024 97.861267,20.7990675 98.276539,20.9353524 C98.5687674,20.9959235 98.9225124,20.969424 99.3377844,20.8558533 C99.7530564,20.7422825 100.191392,20.5378582 100.652806,20.2425743 C101.114219,19.9472904 101.591006,19.5611556 102.08318,19.0841585 C102.575354,18.6071613 103.052141,18.0355305 103.513554,17.3692488 C103.759641,17.0209651 103.982654,16.680258 104.1826,16.3471171 C104.382546,16.0139763 104.567108,15.695983 104.736293,15.3931276 C104.828576,15.2719855 104.951618,15.1962728 105.105422,15.1659873 C105.259227,15.1357017 105.401494,15.1394874 105.532227,15.1773443 C105.662961,15.2152012 105.755242,15.2871283 105.809074,15.3931276 C105.862906,15.499127 105.84368,15.6278386 105.751398,15.7792662 L105.313057,16.4834014 C104.943926,17.0739692 104.49021,17.7364553 103.951895,18.4708795 C103.413579,19.2053037 102.75992,19.9283599 101.990898,20.6400699 C101.560245,21.0034963 101.129599,21.2836333 100.698947,21.4804893 C100.268294,21.6773452 99.8568737,21.824985 99.4646724,21.923413 C99.0724711,22.0218409 98.7148811,22.0786255 98.3918917,22.0937682 L97.8852624,22.112848 C97.7892891,22.1152709 97.7043897,22.1164823 97.6305636,22.1164823 C96.4924107,22.1164823 95.6080484,21.8439166 94.9774502,21.298777 C94.3468519,20.7536374 94.0084872,20.011653 93.9623459,19.0728015 C93.931585,18.2096638 94.0930772,17.3578959 94.4468275,16.5174724 C94.8005777,15.6770489 95.3696456,14.7419971 96.1540483,13.712289 C96.4001354,13.3942909 96.734655,13.0460125 97.1576173,12.6674433 C97.5805795,12.2888742 98.0573661,11.9443814 98.5879914,11.6339547 C99.1186168,11.323528 99.6838396,11.0698904 100.283677,10.8730345 C100.883514,10.6761785 101.483343,10.5853233 102.08318,10.600466 C102.667637,10.6156088 103.136733,10.7670342 103.490484,11.0547468 C103.844234,11.3424593 104.021106,11.7210228 104.021106,12.1904486 C104.021106,12.6295888 103.836544,13.1292926 103.467413,13.6895749 Z M102.08318,11.7588819 C101.483343,11.880024 100.91043,12.1639466 100.364424,12.6106582 C99.8184181,13.0573698 99.3339414,13.5760018 98.9109792,14.1665697 C98.4880169,14.7571376 98.1265819,15.3704104 97.8266632,16.0064066 C97.5267446,16.6424028 97.3152666,17.2026767 97.1922231,17.6872453 C98.2996151,17.3086761 99.303174,16.7446165 100.20293,15.9950496 C101.102686,15.2454826 101.844781,14.3255734 102.429238,13.2352942 C102.552282,12.9627244 102.613803,12.6901587 102.613803,12.4175889 C102.613803,12.1904474 102.571507,12.0163082 102.486915,11.8951661 C102.402322,11.774024 102.267745,11.7285963 102.08318,11.7588819 Z M116.340781,17.7553874 C116.125454,18.0885282 115.83323,18.5011624 115.4641,18.9933023 C115.094969,19.4854422 114.679703,19.9586466 114.21829,20.4129296 C113.756877,20.8672126 113.268555,21.2571329 112.75331,21.5827024 C112.238065,21.9082719 111.718983,22.0710542 111.196048,22.0710542 C110.888439,22.0710542 110.596215,22.0256266 110.319367,21.93477 C110.042519,21.8439134 109.796435,21.7076305 109.581109,21.5259173 C109.365783,21.3442041 109.196601,21.1094948 109.073557,20.8217822 C108.950513,20.5340697 108.896683,20.1933625 108.912063,19.7996506 C108.927444,19.4210814 108.981274,19.042518 109.073557,18.6639488 C109.16584,18.2853796 109.288881,17.8803167 109.442686,17.4487479 C109.558039,17.1250713 109.688531,16.7779746 109.834164,16.4074521 L109.984844,16.0291206 C110.19248,15.5142666 110.434718,14.9388501 110.711566,14.3028539 C110.83461,13.9999986 110.938426,13.716076 111.023019,13.4510776 C111.107611,13.1860791 111.149907,12.9475842 111.149907,12.7355854 C111.149907,12.5841578 111.05378,12.5349445 110.861525,12.5879442 C110.690631,12.635055 110.419483,12.8167656 110.048075,13.1330805 L109.904097,13.2580083 C109.365781,13.7122912 108.873614,14.1741387 108.427582,14.6435644 C107.981549,15.1129902 107.527832,15.6354078 107.066419,16.2108329 C106.666527,17.1193989 106.324318,18.0430938 106.03978,18.9819453 C105.755241,19.9207968 105.574524,20.8974906 105.497622,21.9120559 C105.482241,22.0483408 105.359199,22.1013397 105.128493,22.0710542 C104.897786,22.0407687 104.651703,21.9688416 104.390235,21.8552709 C104.128768,21.7417001 103.882684,21.6016316 103.651977,21.4350612 C103.421271,21.2684908 103.298229,21.1094941 103.282849,20.9580664 C103.32899,20.1706426 103.459722,19.3643024 103.675048,18.5390216 C103.890374,17.7137408 104.163373,16.8809012 104.494053,16.0404777 C104.824732,15.2000541 105.197702,14.3558576 105.612974,13.5078626 C106.028246,12.6598677 106.443512,11.8194568 106.858784,10.9866047 L107.52783,9.64647653 C108.035385,8.61676842 108.512171,7.57950449 108.958204,6.53465361 C109.404237,5.48980273 109.734912,4.57367911 109.950238,3.78625526 C110.150184,3.69539866 110.407802,3.68782739 110.723101,3.76354122 C111.038401,3.83925506 111.338315,3.96796664 111.622853,4.14967983 C111.907391,4.33139303 112.141939,4.55095985 112.326505,4.80838688 C112.51107,5.06581391 112.564901,5.32323707 112.487999,5.5806641 C112.43673,5.71190141 112.361538,5.88351751 112.26242,6.09551496 L111.641598,7.37223296 L111.641598,7.37223296 L111.472894,7.71578348 C111.242188,8.18520924 110.996104,8.67734176 110.734637,9.19219582 L110.221958,10.1916129 C110.138221,10.3531347 110.055338,10.5121329 109.973309,10.6686082 L108.981275,12.5084451 L108.912063,12.6220152 C109.48114,12.0920184 110.088658,11.6415279 110.734637,11.2705301 C111.380615,10.8995323 112.057345,10.6913224 112.764845,10.6458941 C112.949411,10.6458941 113.149353,10.7102499 113.36468,10.8389634 C113.580006,10.9676769 113.776104,11.1266736 113.952979,11.3159582 C114.129854,11.5052428 114.268276,11.7058814 114.368249,11.9178801 C114.468221,12.1298789 114.495137,12.3191606 114.448995,12.485731 C114.252895,13.0081565 114.054634,13.5071524 113.854208,13.9827272 L113.653061,14.4504951 C113.383904,15.0637772 113.149355,15.5899804 112.94941,16.0291206 L112.476463,17.1193944 L112.476463,17.1193944 C112.330349,17.4525352 112.199617,17.7818854 112.084264,18.1074549 C111.968911,18.4330244 111.876629,18.7699459 111.807417,19.1182295 C111.755508,19.3794422 111.714414,19.6619462 111.684134,19.9657463 L111.657459,20.2766454 C111.642078,20.3523592 111.661304,20.4280719 111.715135,20.5037857 C111.768967,20.5794996 111.880473,20.5946421 112.049658,20.5492138 C112.44955,20.3523578 112.949407,19.9927225 113.549244,19.4702971 C114.149081,18.9478716 114.7566,18.2323867 115.371818,17.3238207 C115.664046,16.8998232 115.94089,16.4682609 116.202357,16.0291206 L116.571486,15.3931276 C116.617628,15.3174138 116.706064,15.2757718 116.836798,15.2682004 C116.967531,15.260629 117.094418,15.2795572 117.217462,15.3249855 C117.340505,15.3704138 117.440477,15.430984 117.517379,15.5066978 C117.594281,15.5824116 117.601971,15.6732669 117.540449,15.7792662 L116.340781,17.7553874 Z M133.689835,17.7553874 C133.474509,18.0885282 133.182285,18.5011624 132.813154,18.9933023 C132.444024,19.4854422 132.032603,19.9586466 131.57888,20.4129296 C131.125157,20.8672126 130.636835,21.2571329 130.1139,21.5827024 C129.590965,21.9082719 129.068037,22.0710542 128.545102,22.0710542 C128.237493,22.0710542 127.945269,22.0256266 127.668421,21.93477 C127.391573,21.8439134 127.14549,21.7076305 126.930164,21.5259173 C126.714838,21.3442041 126.545655,21.1094948 126.422612,20.8217822 C126.299568,20.5340697 126.245737,20.1933625 126.261118,19.7996506 C126.276498,19.4210814 126.330329,19.042518 126.422612,18.6639488 C126.514894,18.2853796 126.637936,17.8803167 126.79174,17.4487479 C126.907094,17.1250713 127.037586,16.7779746 127.183219,16.4074521 L127.333898,16.0291206 C127.541534,15.5142666 127.783773,14.9388501 128.060621,14.3028539 C128.183664,13.9999986 128.291326,13.7122903 128.383608,13.4397205 C128.475891,13.1671507 128.522032,12.9248701 128.522032,12.7128714 C128.522032,12.5614437 128.425905,12.5235874 128.23365,12.5993012 C128.041394,12.675015 127.722255,12.8945819 127.276222,13.2580083 C126.737906,13.7425768 126.23805,14.2195668 125.776636,14.6889925 C125.315223,15.1584183 124.861507,15.6808359 124.415474,16.256261 C124.169387,16.7711151 123.938683,17.331389 123.723357,17.9370997 C123.523411,18.5428103 123.346539,19.1825826 123.192734,19.8564357 C123.03893,20.5302888 122.938959,21.2154887 122.892817,21.9120559 C122.892817,22.0634836 122.777466,22.1240538 122.546759,22.0937682 C122.316052,22.0634827 122.066124,21.9915556 121.796966,21.8779849 C121.527808,21.7644141 121.27788,21.62056 121.047173,21.4464182 C120.816466,21.2722764 120.693425,21.1094941 120.678044,20.9580664 C120.724186,19.8980728 120.920283,18.8343094 121.266343,17.7667444 C121.543191,16.9126924 121.852027,16.0416909 122.192856,15.1537233 L122.637158,14.0154509 C122.776837,13.6446097 122.885127,13.3239885 122.962029,13.0535819 C123.069692,12.6750128 123.085072,12.4478747 123.00817,12.3721608 C122.823605,12.4024464 122.385269,12.6977259 121.693149,13.2580083 C121.154833,13.727434 120.662666,14.2006384 120.216633,14.6776355 C119.7706,15.1546326 119.309194,15.6808359 118.8324,16.256261 C118.432509,17.1496842 118.094144,18.0658078 117.817296,19.0046593 C117.540448,19.9435109 117.363576,20.9126334 117.286673,21.9120559 C117.271293,22.0483408 117.148251,22.1013397 116.917544,22.0710542 C116.686838,22.0407687 116.440754,21.9688416 116.179287,21.8552709 C115.917819,21.7417001 115.671736,21.6016316 115.441029,21.4350612 C115.210323,21.2684908 115.087281,21.1094941 115.0719,20.9580664 C115.133422,19.822359 115.35259,18.6980254 115.729411,17.5850321 C116.106232,16.4720388 116.509963,15.3477052 116.940615,14.2119978 C117.155941,13.6820009 117.367419,13.1368695 117.575055,12.5765872 C117.782691,12.0163048 117.978789,11.403032 118.163354,10.7367503 C118.34792,10.6458941 118.601693,10.642108 118.924682,10.7253932 C119.247672,10.8086785 119.555276,10.9411757 119.847504,11.1228889 C120.139733,11.3046021 120.378126,11.5241689 120.562692,11.7815959 C120.747257,12.0390229 120.793398,12.2964461 120.701115,12.5538731 L120.724185,12.5538731 C120.724185,12.5841587 120.716495,12.6068725 120.701115,12.6220152 C121.270191,12.0920184 121.87771,11.6415279 122.523688,11.2705301 C123.169667,10.8995323 123.846397,10.6913224 124.553897,10.6458941 C124.738462,10.6458941 124.94225,10.7102499 125.165267,10.8389634 C125.388283,10.9676769 125.592071,11.1266736 125.776636,11.3159582 C125.961202,11.5052428 126.099623,11.7058814 126.191906,11.9178801 C126.284189,12.1298789 126.299569,12.3191606 126.238047,12.485731 C126.21754,12.5160166 126.20216,12.5463018 126.191906,12.5765871 L126.180371,12.6220152 C126.172681,12.6674435 126.153455,12.7052999 126.122694,12.7355854 C126.707151,12.1904458 127.33774,11.7172415 128.01448,11.3159582 C128.691219,10.9146749 129.398709,10.6913224 130.13697,10.6458941 C130.306155,10.6458941 130.498408,10.7102499 130.713734,10.8389634 C130.92906,10.9676769 131.125158,11.1266736 131.302033,11.3159582 C131.478908,11.5052428 131.61733,11.7058814 131.717303,11.9178801 C131.817276,12.1298789 131.836501,12.3191606 131.77498,12.485731 C131.513512,13.2125838 131.252048,13.8788555 130.990581,14.4845662 L130.508663,15.5849347 C130.435179,15.7498215 130.365113,15.9054546 130.298464,16.0518347 C130.113899,16.4304038 129.952407,16.7862535 129.813983,17.1193944 C129.675559,17.4525352 129.552517,17.7856711 129.444854,18.1188119 C129.337191,18.4519528 129.244909,18.7926599 129.168007,19.1409436 C129.110331,19.4021563 129.065632,19.6804014 129.03391,19.9756838 L129.006513,20.2766454 C128.991133,20.3523592 129.006513,20.4356432 129.052654,20.5264998 C129.098796,20.6173564 129.206457,20.6249276 129.375642,20.5492138 C129.806295,20.3523578 130.313842,19.9927225 130.898299,19.4702971 C131.482755,18.9478716 132.090274,18.2323867 132.720872,17.3238207 C132.859296,17.1269647 133.005408,16.896041 133.159213,16.6310426 L133.477073,16.075811 C133.531759,15.9790662 133.587299,15.880218 133.643694,15.7792662 L133.89747,15.3931276 C133.989753,15.2719855 134.112795,15.1962728 134.266599,15.1659873 C134.420404,15.1357017 134.56267,15.1394874 134.693404,15.1773443 C134.824138,15.2152012 134.916419,15.2871283 134.970251,15.3931276 C135.024082,15.499127 135.004857,15.6278386 134.912575,15.7792662 L134.609774,16.2761358 L134.609774,16.2761358 L134.301205,16.7673268 C134.093569,17.0928963 133.889781,17.4222465 133.689835,17.7553874 Z" id="SierraRehm"></path>
        </g>
    </g>
</svg>